<svg width="549" height="545" xmlns="http://www.w3.org/2000/svg"><path d="M250.883.823c-11.9 1.1-27 3.5-34.1 5.5-2.8.8-5.9 1.4-7 1.4-1 0-3.9.6-6.4 1.4-2.5.8-7.9 2.5-12 3.7-4.1 1.2-7.9 2.6-8.4 3.1-.6.4-1.9.8-2.9.8s-3.1.6-4.5 1.3c-1.5.8-4.3 2.1-6.2 2.9-16 6.7-33.6 15.8-39.7 20.4-1.7 1.3-3.5 2.4-3.8 2.4-.4 0-2.4 1.3-4.5 3-2.1 1.6-4.1 3-4.5 3-.8 0-16 11.7-22 16.9-12.1 10.6-31.1 30.9-40.9 43.6-3.5 4.5-14.9 21.4-15.9 23.5-.4.8-2.3 4.2-4.2 7.5-3.5 6-9.5 17.9-12.3 24.5-.8 1.9-2.1 4.7-2.9 6.2-.7 1.4-1.3 3.5-1.3 4.5s-.4 2.3-.9 2.8c-.5.6-1.4 2.6-1.9 4.5-.6 1.9-1.5 4.8-2.1 6.5-12.3 36.3-16 88.8-8.9 125.5.6 3 1.4 7.5 1.8 10 .3 2.5 1.2 6.5 1.9 9 3.4 12.5 4.3 15.7 5.3 18.5.5 1.6 1.3 4.3 1.8 6 .4 1.6 1.2 4.1 1.8 5.5.5 1.4 1.8 4.5 2.8 7 4.3 11.1 16.6 35 22.5 43.8 1.6 2.4 2.9 4.5 2.9 4.7 0 .5 9.4 13.4 14.8 20.5 8.4 10.9 25.5 28.6 36.7 38 2.8 2.3 6.1 5.2 7.5 6.4 1.4 1.2 4.8 3.7 7.5 5.6 2.8 1.8 5.2 3.6 5.5 3.9 1.8 2.1 22.7 14.9 30.3 18.6 2.9 1.4 5.9 3 6.7 3.4 2.5 1.5 14.3 6.8 19 8.6 2.5 1 5.9 2.4 7.7 3.1 1.7.8 3.6 1.4 4.2 1.4.6 0 2.5.6 4.3 1.4 5.2 2.2 21.7 6.8 32.8 9 22.9 4.7 26.9 5 54.5 5 18.3 0 28.9-.5 33-1.4 3.3-.7 8.5-1.6 11.5-2 3-.4 7.8-1.3 10.5-2 2.8-.6 7.7-1.9 11-2.7 3.3-.8 7.4-1.9 9-2.4 1.7-.6 4.4-1.4 6-1.9 11-3 42.9-17 53-23.3 1-.7 3.7-2.3 6-3.7 2.2-1.3 4.9-3 6-3.7 1.1-.7 2.7-1.5 3.5-1.9 2.6-1.3 25.3-18.6 29.9-22.8 12.9-11.7 27.6-27.4 34.6-36.6 2.7-3.6 5.2-6.7 5.5-7 1.1-.8 13.5-19.1 16.3-24 2.9-5 15.3-29.8 17.2-34.5.7-1.7 2-4.7 2.9-6.8.9-2.1 1.6-4.4 1.6-5.2 0-.8.6-2.9 1.4-4.7 2.2-5.2 6.9-22.2 9-32.8 4.1-20.8 4.9-29.2 4.8-56 0-20.2-.4-28.2-1.6-33.8-.9-4-1.6-8.6-1.6-10.2 0-1.5-.6-5-1.4-7.6-.8-2.7-1.9-7.2-2.6-9.9-2-8.8-2.8-11.9-3.9-15-.6-1.7-2-5.9-3.2-9.5-2.9-8.8-4.7-13.7-5.8-15.8-.4-.9-1.5-3.3-2.3-5.2-4-9.2-12.4-25-16.9-31.8-1.6-2.4-2.9-4.5-2.9-4.8 0-.3-2-3.1-4.3-6.2-2.4-3.1-4.8-6.4-5.3-7.3-2.5-4.6-19.6-24.1-29.4-33.8-15.2-14.9-40.8-34.2-57.5-43.3-11.6-6.3-27.8-14-36.5-17.3-2.5-.9-5.3-2.1-6.2-2.6-1-.5-3.4-1.3-5.5-1.8s-5.1-1.4-6.8-1.9c-27.5-9.4-70.1-13.9-104-11.1zm54.5 23.8c12.3 1.7 31.2 5.7 38.5 8.3 1.7.5 4.6 1.3 6.5 1.8 1.9.4 4.6 1.2 6 1.8 1.4.5 4.5 1.8 7 2.7 25.3 9.8 52.1 25.6 73.5 43.5 4.2 3.5 25.3 24.6 29.9 30 12.5 14.4 24.9 33.2 33.1 50 3.6 7.3 5 10.4 7.9 17.2.7 1.8 2.1 5 3 7.1.9 2.1 1.6 4.4 1.6 5.2 0 .8.6 2.9 1.4 4.7 2.6 6.4 5.6 18.3 9 36.3.9 4.4 1.9 15.3 2.2 24.1l.7 16.2-2.4 1.2c-1.7 1-7.1 1.2-21.4.7-10.5-.3-20.2-.3-21.7 0-6.2 1.2-8.8 7.6-4.9 12.4 1.9 2.4 2.2 2.4 25.3 2.9l23.3.5.3 4.5c.4 4.3-1.8 19.3-4 27.5-.6 2.2-1.5 5.8-1.9 8-1.1 6-3 12.6-4.5 16.2-.8 1.7-1.4 3.6-1.4 4.2 0 .6-.6 2.5-1.4 4.3-.8 1.8-2.5 5.9-3.7 9-2.7 7-4.4 7.3-8.5 1.9-5.9-7.9-26.6-32.1-27.4-32.1-.5 0-1.8 1.2-3 2.7-1.2 1.6-3.6 4.4-5.3 6.3-1.8 1.9-5 5.7-7.2 8.5-3.3 4.1-18.2 22.1-26.3 31.6-1.1 1.3-6.8 8.2-12.7 15.4-5.8 7.1-11.6 14.1-12.9 15.5-1.2 1.4-6.6 7.8-12 14.3-6.7 8-10.2 11.5-11.1 11-.7-.5-3.4-3.1-5.9-5.9l-4.6-5.2v-49.5l3.4-7.1c4.1-8.7 5.6-12.8 6.7-18.6.4-2.5 1.3-6.1 1.8-8 .6-1.9 1.1-5.7 1.1-8.5 0-2.7.6-6.1 1.3-7.4 1-2 7.5-6.3 14.7-9.7 2.6-1.3 9.4-7.7 13-12.4 6.9-8.9 10-17.9 10-29 0-10.6-2.5-17.3-10.1-27.5l-3.8-5-.3-51.5c-.3-49.3-.4-51.7-2.3-55-5.8-10.3-12.3-15.8-22.3-18.9l-5.6-1.8-2.3-6.6c-1.2-3.6-3.1-8-4.3-9.9-1.1-1.8-2.4-4.2-2.9-5.4-1.5-3.5-16.7-18.2-22.9-22.2-6.5-4.2-15.5-9-19.2-10.2-1.4-.5-5-1.8-8-3-5.9-2.4-9.5-3.3-18-5-12.7-2.5-17.9-3.2-29.6-3.7-14.9-.7-15.1-.5-10.5 9.9 5.3 12 10.9 10.8-49.3 10.8h-52.4l-3.1 2.6c-2.6 2.1-3.1 3.3-3.1 6.8 0 3.1.6 4.8 2.3 6.4 2.2 2.1 3.3 2.2 24.2 2.4 16.3.2 21.9.6 22.2 1.5.3.7-1.5 3.2-3.9 5.6-4.2 4.3-18.8 15.7-21.8 17-.8.4-2.8 1.6-4.5 2.7-3.2 2.1-3.9 2.5-12 6-11.3 5-23.7 8-36 8.9-8.3.5-9 .8-9.3 2.8-.7 4.5 9.3 19.8 19.5 29.9l7.3 7.2v72.4l-4 4.5c-6.7 7.6-11 19.2-11 29.4 0 4.8 2.6 14.3 5.5 20.1 5.1 9.9 15.4 19.8 26 24.8 6.4 3.1 7.4 4.4 7.5 10.4 0 4.9 1.6 12.5 4.5 21.7.8 2.6 1.5 5.2 1.5 5.8 0 .6 1.5 4.3 3.4 8.3l3.3 7.3.6 23.8c.3 13.1.1 25.2-.3 26.8-1 3.5-8 10.9-10.3 10.9-.8 0-11.4-12-23.7-26.8-12.2-14.7-23.1-27.8-24.3-29.2-1.3-1.4-3.8-4.5-5.7-7-1.9-2.5-4.2-5.3-5.2-6.2-.9-1-8.1-9.4-15.8-18.8-15.8-18.9-15.1-18.6-21.1-10.8-1.8 2.4-4 5-4.8 5.9-2.2 2.3-5.1 5.7-10 11.9-6.6 8.3-9.9 12-11 12-2.3 0-10.3-20.6-13.1-33.8-.5-2.3-1.4-5.1-2-6.1-.5-1.1-1-3.2-1-4.7s-.6-5.3-1.4-8.3c-2.4-9.3-3.8-24.1-2.5-25.7.8-1 8.6-1.4 38-1.6l37-.3 1.9-2.5c2.6-3.4 2.5-6.3-.4-9.7l-2.4-2.8-36.9-.3c-20.2-.1-37.4-.5-38-.7-1.7-.6-1.7-11.7-.1-13.3.9-.9 11.1-1.2 39.7-1.2 38.1 0 38.5 0 40.8-2.2 3.3-3 3.1-8-.3-10.7-2.6-2-3.7-2.1-41.2-2.1h-38.4l.6-6.8c.9-8.6 3.7-21.3 8.3-37.2 5.4-18.9 16.5-42.8 27.4-59.2 2.1-3.3 3.9-6.2 3.9-6.4 0-.9 12.2-16.8 18.4-23.9 8.4-9.6 22.7-23.6 31.1-30.4 3.9-3.1 7.6-6.1 8.3-6.8.7-.7 5.2-3.8 10-6.9 4.8-3.1 10.5-6.9 12.7-8.3 9-6 37-18.8 49.5-22.6 3-1 7-2.4 8.8-3.1 1.8-.8 4-1.4 4.9-1.4.9 0 3.9-.6 6.7-1.4 9-2.5 19.9-4.5 30.6-5.7 5.8-.6 11.2-1.2 12-1.4 3.1-.8 38.8.3 47 1.4zm53.4 124.4c1.7 1.2 4.3 2.8 5.8 3.4 1.5.7 3 2.3 3.3 3.5.3 1.3.4 16.9.3 34.8l-.3 32.5-3-.4c-1.6-.2-14.9-.5-29.5-.8-29.2-.5-34.6.1-41.5 4.8-2.2 1.5-5.4 4.5-7.2 6.7l-3.2 3.9-4.5-1c-3.2-.7-6-.7-9.3 0l-4.8 1.1-6-6.2c-8.9-9.3-10.3-9.6-40.7-9.6-23.1 0-31.6.7-35.9 3-.9.5-2 .6-2.3.3-.8-.8-.8-25.7 0-30.6.6-3.5.9-3.7 4.3-3.7 2 0 6.3.7 9.6 1.5 8.2 2 43.1 3 57 1.6 11-1.1 21.4-2.9 29-5.1 2.2-.6 6.5-1.9 9.5-2.7 3-.9 6.9-2.2 8.7-3 1.7-.7 3.6-1.3 4.1-1.3.6 0 2.3-.6 3.9-1.4 1.5-.8 4.6-2.3 6.8-3.3 11.9-5.5 29.5-17.6 37.5-25.7 2.4-2.5 4.6-4.6 4.9-4.6.2 0 1.8 1 3.5 2.3zm-115.4 91.2c7.6 3.9 9.8 12.9 6 23.8-2.7 7.7-3.8 9.6-7.9 13.4-4.3 4-10 4.7-30.5 4.1-13.8-.4-14.3-.5-18-3.3-8.7-6.7-13.5-24.7-8.6-32.7 3.8-6.3 5.8-6.7 32.3-6.8 19.3 0 24.3.3 26.7 1.5zm115.2.3c5.7 3.7 7.2 7 7.1 14.6-.2 12.1-7.3 23.7-15.9 25.7-4.4 1-31 1.2-36.6.3-6.9-1.2-12.1-8.3-15.3-20.9-1.8-7-1.8-7 .5-12.2 3.8-9 4.4-9.1 33-9.2 21.8-.1 24.8.1 27.2 1.7zm-77 20.2c3.4 16.8 11.1 29 21.8 34.3 4.1 2 6.2 2.2 25 2.5 23.2.4 29.4-.5 35.3-5 4.9-3.8 5.1-3.3 4.4 14.5-.6 16.2-1.6 19.8-8.2 29.8-3.6 5.3-5.6 7.2-10.4 9.7-8.3 4.5-14.4 4.5-19 0-1.8-1.8-3.7-4.2-4.3-5.3-2.8-6.2-6.5-10.6-11.3-13.4-6.2-3.7-11.3-4.1-58-4.1-8.1 0-21 2.2-24 4-4.9 3-8.5 7.3-11.3 13.5-.6 1.1-2.5 3.5-4.3 5.3-2.7 2.7-4 3.2-8 3.2-11.7 0-22.9-9.9-28-24.8-1.5-4.4-1.9-8.4-1.9-20.2 0-8.1.3-14.9.6-15.3.4-.3 2.3.7 4.3 2.3 6.6 5.3 10.3 6 32.4 6 12.4 0 21.5-.4 24.1-1.2 6.2-1.8 14.2-8.2 16.6-13.3.6-1.1 1.4-2.7 1.9-3.5 2-3.3 7.1-18.7 7.1-21.3 0-1.6.8-1.8 7.2-1.5l7.3.3.7 3.5zm-119.6 6.7c1.1 10.7.8 35.3-.4 36.5-.7.7-2.9-.4-6.5-3.1-4.1-3-6.2-5.5-8.2-9.8-3.7-7.7-4.1-12.1-1.9-18.3 1.9-5.4 4.2-8 9.5-11 6-3.4 6.6-2.9 7.5 5.7zm231.6-5.5c5.5 2.8 6.9 4.2 9 9.1 4.7 10.3-.2 24.9-10.4 31.3-7.1 4.5-7.2 4.2-6.5-19.6.3-11.5.8-21.4 1.2-22 .9-1.5 1.9-1.3 6.7 1.2zm-85.2 88.3c3.1 2.7 4.3 6.4 2.9 8.1-1 1.2-7.5 1.4-37.8 1.2l-36.6-.3v-3.5c0-2.8.6-3.8 3.5-5.7l3.4-2.4 31.2.3c29.6.3 31.3.4 33.4 2.3zm-107 62.6c12.2 11.2 30.2 21.6 43.5 25.2 22.2 6 35.4 6 57.5.1 15.4-4.2 31.9-13.4 43.1-24.1 3.2-3 6.3-5.2 6.8-4.8.7.4 1.1 5.4 1.1 13.3v12.7l-4.3 4.5c-2.3 2.5-7.6 8.1-11.7 12.5-13.5 14.5-34.4 36.8-37 39.4-1.4 1.4-7.4 7.9-13.4 14.3-6 6.5-11.6 11.8-12.5 11.8-.8 0-3.8-2.5-6.6-5.5s-7.3-7.8-10.1-10.7c-2.7-2.9-11.7-12.5-19.9-21.3s-17.7-18.9-21.1-22.5c-6.6-6.9-14.1-15.2-19.3-21.1-2.8-3.3-3.1-4.3-3.1-10.5 0-8.1 1-17.4 1.9-17.4.3 0 2.6 1.9 5.1 4.1z"/><path d="M450.883 162.423c-20.1 10.5-16.9 38.8 5 44.3 7.3 1.8 15.2-.7 21.1-6.5 5.2-5.2 6.9-10.5 6.1-19.1-.7-7.4-3.7-12.3-10.4-17.1-4.2-3-5.3-3.3-11.7-3.3-4.5.1-8.2.7-10.1 1.7zM86.083 175.923c-.8 1.3-1.8 3.2-2.1 4.4-.4 1.2-2.5 2.9-4.9 4-2.4 1.1-4.3 2.7-4.6 3.8-.4 2.2 3.4 5.5 6.2 5.6 1.1 0 2.6 1.7 3.9 4.5 1.9 3.8 2.7 4.5 4.6 4.3 1.8-.2 2.8-1.2 3.6-3.8.8-2.7 2.1-4 5.8-5.7 2.5-1.2 4.9-2.6 5.2-3.1.8-1.4-2.3-5.2-4.3-5.2-2.1 0-5.3-3.3-7.2-7.5-1.8-3.8-4.3-4.3-6.2-1.3zM444.583 246.323c-3.8 2.7-4.6 6.1-2.1 10l2.1 3.4h41.7l2-2.9c2.8-3.9 2.6-5.7-.8-9.2l-2.9-2.9h-18.9c-15.7 0-19.2.3-21.1 1.6z"/></svg>